<?xml version="1.0" standalone="no"?>
<!DOCTYPE svg PUBLIC "-//W3C//DTD SVG 1.1//EN" "http://www.w3.org/Graphics/SVG/1.1/DTD/svg11.dtd" >
<svg xmlns="http://www.w3.org/2000/svg">
<metadata></metadata>
<defs>
<font id="BlueHighwayLinocutRegular" horiz-adv-x="1165" >
<font-face units-per-em="2048" ascent="1556" descent="-492" />
<missing-glyph horiz-adv-x="614" />
<glyph horiz-adv-x="0" />
<glyph horiz-adv-x="2048" />
<glyph horiz-adv-x="614" />
<glyph unicode=" "  horiz-adv-x="614" />
<glyph unicode="&#x09;" horiz-adv-x="614" />
<glyph unicode="&#xa0;" horiz-adv-x="614" />
<glyph unicode="!" horiz-adv-x="473" d="M104 793l64 -353l-53 123zM113 176l104 131l80 -16l74 -74l12 -131l-92 -119l-156 66zM127 852v623l205 30l59 -569l-65 -545l-127 27zM135 2l113 -43l-80 8zM340 297l37 -6l12 -45zM383 1462l29 -69v-289z" />
<glyph unicode="&#x22;" horiz-adv-x="667" d="M47 1516l232 14l-39 -328v-303l-129 -14zM373 1516l231 14l-39 -328v-303l-129 -14z" />
<glyph unicode="#" horiz-adv-x="1310" d="M39 319l37 218h237l70 342l-213 12l-14 209l272 -23l66 367h145l-57 -330l213 -10l67 330l201 -19l-64 -315l211 24l13 -243l-252 -23l-86 -305l250 -21l30 -151l-286 -55l-97 -316h-166l76 348l-198 9l-140 -363l-147 6l67 258l52 51h-287zM94 553l10 22l185 -18z M166 31l67 215l-53 -223zM186 858l170 2l-32 -31zM365 1114l100 277l-57 -283zM387 10l123 328l-78 -320zM494 885l77 -51l-63 -291l235 -13l68 355h-317zM631 1139l149 10l-6 -23zM725 557l6 295l39 2zM803 14l104 277l29 -12zM920 578l77 249l-36 -245zM1030 1124l64 273 h39zM1165 535h31l-4 -144zM1245 922v188l31 6z" />
<glyph unicode="$" horiz-adv-x="1077" d="M41 231l104 220l-79 -230zM55 1032l131 205l232 88l-15 117l261 59l10 -160l291 -63l-93 -285l-208 101v-209l231 -88l139 -234l-73 -287l-275 -124l-37 -142l-260 -16l45 119l-211 39l-139 53l111 284l90 -92l114 -39l19 316l-133 20l-170 125zM123 778l123 -92l-113 49 zM193 1280l14 37l155 20zM270 113l133 -21l-14 -22zM319 1022l109 -172v270zM348 655l49 -2l-20 -207zM358 1028l45 35l-20 -70zM678 336l121 153l-119 132zM684 895l4 160l33 -13zM696 1358l279 -29l-19 -20zM698 403v64l17 -18zM711 139l239 103l-4 -23zM901 987l74 236 l-51 -240zM920 803l30 10l92 -221z" />
<glyph unicode="%" horiz-adv-x="1609" d="M86 846v444l119 144l172 61l139 -18l121 -103l70 -287l-23 -280l-289 -141l-198 55zM137 -12l586 690l522 749l146 25q-352 -492 -1084 -1493zM252 1122l12 -207l111 -81l78 6l47 55l30 197v141l-77 84l-109 -4zM711 750l350 665l96 8zM926 150v444l118 143l173 62 l139 -19l121 -102l69 -287l-22 -280l-289 -142l-199 56zM1092 426l12 -207l110 -82l78 6l47 56l31 196v142l-78 84l-108 -5z" />
<glyph unicode="&#x26;" horiz-adv-x="1380" d="M61 594l250 194l-174 289l146 344l356 54l227 -74l80 -277l-252 -96l-41 170l-192 23l-51 -164l485 -500l78 272h280l13 -245l-140 -269l316 -315h-404l-143 172l-10 -109l-322 -114l-246 61l-245 240zM72 213l215 -219l-31 -23zM100 659l152 160l20 -22zM121 1128 l92 283l41 4zM358 440l72 -194l172 -41l156 92l-350 367l30 -99zM387 442l68 84l-37 -92l16 -137zM440 1065l47 133l29 -20zM602 233l94 84l25 -18zM686 1004l272 94l-10 -33zM707 1479l38 18l121 -63zM850 637l90 176l-63 -209zM926 94l98 -121l-45 -14zM1157 315l131 230 l-106 -264z" />
<glyph unicode="'" horiz-adv-x="342" d="M47 1516l232 14l-39 -328v-303l-129 -14z" />
<glyph unicode="(" horiz-adv-x="686" d="M123 322l84 -373l-41 -37zM156 399l69 627l234 498l217 -25l-234 -461l-73 -422l84 -553l217 -434l-211 -28l-215 352zM403 618l60 408l47 37z" />
<glyph unicode=")" horiz-adv-x="686" d="M4 -377l242 400l102 411l-115 651l-204 394l221 61l92 -147l170 -441l-23 -673l-239 -664zM199 1083l116 -628l-34 -56zM299 -381l205 608l-154 -612z" />
<glyph unicode="*" horiz-adv-x="1036" d="M35 799l368 217l-333 209l73 129l252 -199l45 -121l-37 457l148 -6l18 -383l279 272l127 -123l-340 -235l319 -197l-98 -166l-262 203l16 -348l-170 -29l-10 303l29 119l-297 -252zM63 1159l15 27l172 -105zM182 641l213 172l-170 -197zM324 1247l32 15l29 -78zM582 1151 v301l32 -264zM623 795l26 -35l-10 -238zM692 1030l246 137l-207 -157z" />
<glyph unicode="+" d="M53 639l10 211l437 -14l-19 424l215 -48l-53 -389l449 23l-21 -236l-436 21l76 -375l-279 -39l29 457zM201 631h217v-56zM702 852l15 96l90 -84z" />
<glyph unicode="," horiz-adv-x="419" d="M59 -111h17l-2 -94zM66 195l131 124l143 -73l-6 -236l-74 -141l-174 -74l2 96l121 91l-123 51zM88 18l92 -38l-18 -11zM274 -129l70 131l-43 -117z" />
<glyph unicode="-" horiz-adv-x="473" d="M35 633l4 29l383 -15zM43 682v209l207 -29l172 41l20 -235zM57 907h242l-41 -20z" />
<glyph unicode="." horiz-adv-x="440" d="M82 18v187l125 92l125 -37l28 -186l-147 -107zM84 217l92 84l19 -2zM225 -37l135 100l-116 -100h-19z" />
<glyph unicode="/" horiz-adv-x="774" d="M10 -193l338 943l223 780l183 -4l-541 -1712zM242 698l282 836l-207 -776zM258 -184l262 843l-192 -829z" />
<glyph unicode="0" horiz-adv-x="1277" d="M86 1114l162 236l-152 -291zM90 299l6 57l183 -278zM96 403v605l203 358l307 111l246 -37l211 -176l127 -525l-150 -577l-399 -180l-319 88zM344 944l10 -502l135 -200l265 18l153 182v578l-157 170l-220 2zM375 948l174 203l-168 -283zM412 432l147 -149l-53 -4z M827 412l39 333l11 -288zM1079 178l135 514l-65 -459z" />
<glyph unicode="1" horiz-adv-x="544" d="M31 1309l157 43l41 100l230 -4l-29 -780v-668l-264 -10v1014l110 59l-213 10zM39 1335l145 80l-16 -35zM94 954l43 31l-4 -379zM459 715l22 727l35 -25z" />
<glyph unicode="2" horiz-adv-x="1079" d="M76 1241l147 -207l-22 -22zM82 -8v252l139 370l412 256l90 166l-74 166l-239 10l-156 -163l-158 211l221 194l314 29l254 -137l78 -342l-181 -320l-282 -172l-107 -207l-110 -61h663l6 -252h-870zM426 1190l207 -10l18 -43zM430 319l92 175l-37 -152zM817 678l172 305 l-121 -276zM977 2v248l35 4z" />
<glyph unicode="3" horiz-adv-x="1026" d="M41 154l20 22l185 -158zM76 197l194 190l189 -158l178 56l43 147l-96 223l-224 -28l-32 272l182 16l102 93l-20 172l-154 51l-92 -103l-229 84l90 150l162 96l288 -12l177 -227l-52 -365l-116 -31l186 -106l80 -223l-58 -338l-278 -168l-326 45zM92 1149l29 33l217 -86z M377 594l196 29l23 -41zM438 274l176 21l-145 -45zM502 950l80 144v-70zM627 -16l258 147l14 -27zM811 854l39 233l8 -217z" />
<glyph unicode="4" horiz-adv-x="1116" d="M39 627l557 839l266 -14v-854l137 18l29 -274l-172 -23l31 -331l-264 -6l-17 268l92 69l-651 19zM43 694v78l502 701zM326 598h325l-12 377l25 172zM539 188l47 31v-156zM586 819l32 74l-6 -246zM883 623l6 47l100 -25zM889 297l59 -293l-39 -10z" />
<glyph unicode="5" horiz-adv-x="1114" d="M66 1427l49 19l-31 -344zM72 88l143 231l193 -106l204 14l156 199l-59 264l-238 39l-172 -119l-195 101l58 745l741 -26l8 -238l-491 18l-29 66l-41 -358l125 61h205l283 -219l55 -324l-148 -352l-411 -109zM356 621l127 81l78 -8zM424 1176l471 -13l-463 -20zM537 254 l182 172l-117 -174zM735 981l129 -45l97 -143zM895 74l147 327l-6 -118z" />
<glyph unicode="6" horiz-adv-x="1052" d="M33 360l162 -315l-54 21zM43 414l76 526l237 406l342 114l39 -227l-260 -98l-178 -273l201 113l250 -57l200 -316l-41 -436l-346 -184l-332 61zM121 1006l137 299l61 24zM299 346l109 -143l194 -4l115 182l-4 188l-107 125h-157l-134 -119zM338 561l133 107l-125 -150z M522 991l37 35l137 -59zM530 231l146 156l-90 -158zM948 178l37 389l-6 -346l12 -2z" />
<glyph unicode="7" horiz-adv-x="1032" d="M53 1141l6 45l318 -6zM61 1217l19 258l874 -13l-12 -252l-176 -249l-139 -441l-56 -479l-329 -18l55 378l115 406l141 319l143 91h-635zM379 797l49 241l61 41zM643 432l10 98l135 416l-104 -416z" />
<glyph unicode="8" horiz-adv-x="1079" d="M53 401l125 367l127 33l-168 149l29 287l217 223l203 27l174 -57l139 -252l-61 -336l-111 -27l246 -143l-29 -355l-176 -264l-334 -57l-289 147zM74 582l30 174l48 8zM346 350l148 -129l211 62l6 256l-52 133h-155l-148 -99zM389 559l127 88h109zM391 1178l23 -144 l71 -116l121 43l51 178l-73 118zM414 328l194 -49l-108 -27zM414 1165l30 13l-6 -131zM592 1024v156l35 -47zM813 70l150 219l-9 -62zM864 846l47 217l-10 -205z" />
<glyph unicode="9" horiz-adv-x="1058" d="M68 905l63 367l264 192l369 -39l203 -331l-37 -498l-228 -473l-370 -164l-51 238l268 108l141 225l-125 -47l-313 68zM135 1311l146 162l81 -5zM193 184l47 13l61 -238zM291 950l133 -215l158 -14l131 143l-11 213l-79 121l-134 29l-147 -70zM299 504l231 -33l-57 -22z M326 973l36 168l113 55zM455 762l198 82l-86 -88zM745 137l199 400l-129 -353z" />
<glyph unicode=":" horiz-adv-x="477" d="M47 874l10 99l54 53zM72 850l63 186l98 74l97 -35l57 -151l-39 -121l-137 -74zM100 127l13 117l139 73l106 -69l29 -142l-61 -104l-162 -14zM123 274l49 58h72zM350 0l60 94l26 -28l-14 -7zM377 803l33 112l12 -53l-2 6z" />
<glyph unicode=";" horiz-adv-x="483" d="M61 854l2 70l50 -131zM63 102l23 158l131 59l74 -4l98 -127l-70 -239l-198 -139l-19 55l166 125l-155 33zM86 942l127 125l88 18l80 -79l-21 -166l-81 -80l-142 33zM111 0l104 -12l-78 -29zM326 307l55 -26l22 -78zM393 858l17 133l24 -47z" />
<glyph unicode="&#x3c;" d="M80 623l20 266l932 338l62 -275l-756 -215l762 -295v-256zM428 1057l528 227l29 -33zM467 737l389 76l-256 -119z" />
<glyph unicode="=" d="M33 506l1057 -23l6 -184l-1053 31zM51 254v47l406 -16zM51 901l19 246l1022 -35l20 -217l-620 20zM483 887l627 -17l12 -36z" />
<glyph unicode="&#x3e;" d="M84 1028v256l1020 -436l-21 -266l-931 -338l-62 274l756 215zM199 219l557 195l-529 -228zM328 657l256 119l133 -43z" />
<glyph unicode="?" horiz-adv-x="929" d="M12 1219l27 28l78 -155zM66 1278l149 164l428 26l209 -190l-33 -371l-258 -315v-195l-295 -20l56 317l290 320l-71 200l-201 19l-172 -160zM207 1073l139 131l62 -8zM256 223l4 64l68 14zM266 164l96 149l109 13l115 -144l-49 -162l-209 -32zM575 16l39 146l21 -70v-6z M596 578l223 266l-215 -336z" />
<glyph unicode="@" horiz-adv-x="1277" d="M76 676l110 375l246 239l230 56l309 -37l227 -277l25 -504l-162 -258l-213 15l-43 92l-100 -96l-125 -25l-148 133l-18 352l147 172l201 -90l-10 86h147l-14 -452l129 -25l61 230l-33 346l-272 186l-289 -25l-243 -280v-475l118 -242l295 -143l-65 -205l-154 57l-180 148 l-133 247zM264 782v99l105 114v-41zM543 561l71 -158l148 72l18 215l-82 76l-108 -39zM565 557l29 100l24 -145zM600 928l113 -4l6 -54zM627 -158l65 203l-2 -201zM735 276l60 54l18 -62zM913 547l56 -70l-54 8zM1018 1298l180 -155l-4 -45z" />
<glyph unicode="A" horiz-adv-x="1196" d="M-16 -18l237 630l205 840l98 -25l236 39l399 -1466l-256 -12l-37 268l-495 -43l-19 74l-94 -328zM207 659l143 809l45 -22zM387 186l414 31l-406 -94zM416 469l358 37l-51 51l-80 520l-92 -33zM623 1012l61 -430l-35 30zM899 -39l272 12l11 -34z" />
<glyph unicode="B" horiz-adv-x="1144" d="M66 567v754l47 -606zM82 -33l61 742l-41 718l287 17l262 29l230 -160l127 -189l-47 -284l-154 -70l125 -10l143 -121l45 -324l-172 -297h-303zM367 -37l327 35l90 -35h-417zM373 213h323l140 145l-11 134l-98 135l-328 -21zM373 844l250 -10l104 159l-16 107l-93 102 h-245v-358zM389 1167l66 -293l-52 5zM399 236l9 49l258 -49h-267zM520 584l201 14l24 -37zM991 20l156 267l-84 -232zM993 838l49 270l9 -193z" />
<glyph unicode="C" horiz-adv-x="1282" d="M68 483l141 -307l-59 51zM88 530l35 498l217 336l389 98l291 -61l160 -219l-217 -166l-211 182l-246 -61l-137 -297v-330l159 -225l263 -29l165 154l228 -187l-250 -200l-406 -35l-286 174zM109 1067l110 262l78 17zM412 852l125 258l84 14zM567 319l269 13l-58 -45z M979 987l223 172l17 -33zM997 31l207 166l-133 -156z" />
<glyph unicode="D" horiz-adv-x="1310" d="M70 1393l30 12v-586zM115 -57l20 753v709l207 20l465 -14l321 -252l144 -422l-187 -520l-303 -213l-297 -16zM371 633l18 -434l377 47l209 315v393l-250 234h-342zM403 666l11 499l45 -10zM700 274l213 269v-6l-157 -263h-56zM852 1417l90 -14l168 -186zM1126 238 l168 467l-114 -447z" />
<glyph unicode="E" horiz-adv-x="1021" d="M63 623l50 63l-31 -684zM113 1444l796 -6l33 -269h-524l-41 52l-39 -359l358 10l56 -260l-381 23l18 -350l-74 -52l246 -10l369 13l12 -242l-418 16l-409 -43l39 723zM418 305v283l55 -242zM440 1141h410l-377 -37zM731 872l49 -2l-4 -174z" />
<glyph unicode="F" horiz-adv-x="958" d="M61 635l19 547l24 -453zM109 1448l815 -43l-17 -217l-16 4l-510 35l-27 35v-383h375l-16 -267l-271 -30l-84 98l58 -680l-297 -39l22 768zM193 -51l229 24l20 -34zM408 1192l419 -25l-397 -18zM471 547l223 28l-200 -71z" />
<glyph unicode="G" horiz-adv-x="1349" d="M76 868l164 416l389 189l354 -76l217 -228l-239 -157l-80 125l-195 55l-252 -92l-78 -312l15 -292l200 -228l226 -35l145 189l102 63l-376 11v264h602l4 -195l-125 -325l-195 -217l-301 -70l-325 127l-232 297zM102 299l177 -219l-164 158zM248 1313l244 164l81 -4z M399 496l4 59l164 -236zM414 879l47 186l188 80l-135 -80zM596 768h43l-2 -248zM793 270l41 109l55 31zM967 967l254 182l-236 -209l6 16zM1178 246l100 264l-41 -242z" />
<glyph unicode="H" horiz-adv-x="1249" d="M61 223l23 588l31 -82zM68 -10l75 725l-49 710l297 9l-39 -635l84 55h424v612l268 -65v-1383l-274 -28v594l-582 22l70 -53l23 -571zM389 512l45 -41l-33 -395zM465 893l39 49l311 -49h-350zM774 555l55 -2v-274zM928 1479l213 -13l-4 -41z" />
<glyph unicode="I" horiz-adv-x="481" d="M6 35l72 620l-39 -643zM61 1427l306 -16l-29 -629l74 -737l-349 -57l46 692zM176 -10l240 30l12 -30h-252zM381 819l16 586l56 -2z" />
<glyph unicode="J" horiz-adv-x="768" d="M25 205h178l198 110l70 394l-57 692l274 61l29 -731l-80 -514l-291 -246l-303 -18zM25 227l8 43l143 -37zM338 1364l45 10l55 -612zM379 -33l256 215v-51z" />
<glyph unicode="K" horiz-adv-x="1161" d="M29 -27l71 666l-30 -666h-41zM90 1448l281 4l-23 -571l-31 -217l514 763l297 -6l-421 -651l428 -741l-279 -35l-287 475v96l-211 -319l33 -252l-278 -23l18 684zM387 899l23 549h67zM395 240l68 -189l-37 -41zM563 340l6 78l217 -385zM750 770l403 627l-367 -678z" />
<glyph unicode="L" horiz-adv-x="993" d="M53 -39l21 744l20 -97zM86 -57l33 661l-23 848l115 -31l162 31v-1094l-133 -122l696 -19l25 -274h-875zM367 248l551 31l-3 -31h-548zM397 1182l47 -772l-36 -31z" />
<glyph unicode="M" horiz-adv-x="1466" d="M76 1415l393 6l-29 -61l320 -772l252 860h370l-79 -784l51 -664l-269 -10v655l45 342l-393 -1050l-395 1085l41 -1061l-256 -8v629zM391 709l68 -738l-41 2zM471 1354l61 -2l168 -514zM782 -47l232 614l-152 -565zM1075 -51l287 18l-287 -47v29zM1335 666l31 100l18 -752 z" />
<glyph unicode="N" horiz-adv-x="1267" d="M37 -41l65 545l-20 -533zM84 1438l342 24l492 -1052l-66 1001l260 27l55 -1428l-319 -16l-457 1096l-55 -553l72 -584l-297 8l22 582zM365 543l51 403l-21 -543zM758 1386l51 19l70 -721zM858 -37l320 17l-312 -50zM1165 725v719l35 -6z" />
<glyph unicode="O" horiz-adv-x="1384" d="M90 473l25 510l186 342l309 137l256 -24l228 -125l190 -301v-451l-172 -448l-367 -164l-454 182zM109 1047l69 237l86 37zM285 59l14 43l324 -145zM354 645l80 -330l297 -88l266 154l64 350l-115 373l-317 94l-252 -201zM385 664l27 311h37zM449 410l221 -134l-203 60z M975 440l16 373l35 -74zM1141 1311l61 -11l86 -251zM1153 131l143 381l-79 -350z" />
<glyph unicode="P" horiz-adv-x="1142" d="M12 1436l51 -9l39 -729zM98 1448l455 8l354 -51l195 -199v-426l-275 -219l-381 -41l-86 103l29 -633l-246 -23v729zM274 1182l84 -27v-385h326l174 121l-8 199l-143 92h-433zM395 827v310l54 -27zM401 410l103 -426l-66 -2zM463 485l317 31l-301 -82zM702 1159l123 -82 l-6 -55zM954 1405l41 8l113 -174z" />
<glyph unicode="Q" horiz-adv-x="1384" d="M45 831l72 396l59 6zM59 760l164 497l328 170l205 29l241 -102l289 -264l19 -474l-131 -434l-93 23l140 -176l-179 -150l-104 139l-195 -65l-256 65l-352 279zM145 233l248 -204l-246 149zM334 553l115 -246l321 -80l-180 269l235 120l131 -256l107 318l-45 371l-193 133 l-223 -13l-246 -182zM360 571l33 402l49 35zM449 391l239 -115l-213 60zM805 1151l180 -117l6 -82zM854 629l45 39l47 -189l-10 4zM1042 1350l50 22l194 -248zM1212 176l111 395l-57 -405z" />
<glyph unicode="R" horiz-adv-x="1167" d="M25 1407l36 6l56 -676zM86 -51l299 20l10 -47zM92 -29l51 725l-32 715l278 14h414l248 -174l53 -417l-213 -252l-88 63l164 -389l184 -262l-293 -35l-96 246l-160 325h-174l-49 76v-606zM293 1188l84 -41l12 -371h316l131 109l-7 233l-127 92zM416 1130l53 -20l-41 -293z M455 489l127 11l-86 -72zM737 852l62 258v-207zM911 561l205 236l-149 -277zM1085 1243l45 -33v-305z" />
<glyph unicode="S" horiz-adv-x="1093" d="M61 1090l103 276l61 18zM86 63l80 252l246 -79l245 -23l109 176l-178 227l-379 115l-123 318l178 356l375 74l313 -160l-49 -281l-115 117l-286 62l-131 -58l18 -155l367 -228l227 -201l29 -307l-178 -235l-383 -62zM176 338l29 53l198 -112zM238 686l333 -98l45 -68z M403 1151l58 18l-37 -151zM883 33l133 196l10 -57zM926 1008l51 284l-10 -321z" />
<glyph unicode="T" horiz-adv-x="1099" d="M23 1192l24 260l543 -18l485 39l-28 -281l-355 14l-28 -573l45 -633h-308l50 612l-52 496l121 74zM51 1487l2 59l506 -84zM315 1036l54 37l37 -436zM694 633l90 -598l-47 -21zM735 1178l299 -21l-28 -61z" />
<glyph unicode="U" horiz-adv-x="1230" d="M72 1466l295 -14l-29 -1040l154 -189l200 -28l133 163v1090h301v-1026l-129 -285l-297 -170l-348 45l-223 273l-12 299zM133 229l184 -221l-170 164zM367 428l36 989l13 -1036zM633 229l172 140l-123 -146zM825 1485v53l295 -45zM1024 143l119 238l-58 -205z" />
<glyph unicode="V" horiz-adv-x="1193" d="M-12 1427l286 21l285 -1038v-244l332 1278h315l-245 -696l-203 -760l-330 -17l-176 664zM209 592l184 -621h-49zM379 1311l213 -766l-19 -86zM455 -61l293 14l-21 -35zM1010 752l229 694l76 -2z" />
<glyph unicode="W" horiz-adv-x="1822" d="M6 1434l285 10l276 -1221l-8 187l205 1024l293 18l188 -960l25 -265l237 1225l310 -8l-224 -703l-125 -753h-342l-168 702l9 293l-254 -1016l-301 -6l-176 678zM217 604l145 -637l-49 -8zM324 1434l65 -2l117 -742zM936 524l12 80l99 -420zM1130 -43l330 4l-323 -51z M1358 842l57 602h62z" />
<glyph unicode="X" horiz-adv-x="1189" d="M-18 1444l303 -10l250 -418l30 -92l297 528h330l-510 -788h74l389 -664l-291 -12l-274 491l-289 -508l-297 11l387 675l104 -53zM121 274l178 416l35 -20zM340 -23l195 342l-127 -337zM354 1423l183 -258l-2 -90zM801 664l53 2l152 -359zM905 1493l322 37l-25 -47z" />
<glyph unicode="Y" horiz-adv-x="1126" d="M12 1397l275 30l254 -555l-29 -141l358 713l256 -10l-415 -852l24 -588h-315v512l65 -37zM330 1432l69 2l146 -461zM346 541l43 -25l10 -280zM748 567l407 840l-397 -932z" />
<glyph unicode="Z" horiz-adv-x="1077" d="M61 -41l13 291l565 858l143 61h-690l-29 256l461 -4l488 41l14 -264l-594 -889l-102 -76h635l18 -274h-922zM96 1065v61l318 13zM268 594l246 469l64 27zM500 336l372 575l-299 -559zM997 238h66l-41 -199zM1047 1464l40 2l-22 -254z" />
<glyph unicode="[" horiz-adv-x="669" d="M113 1526h444l25 -197l-281 -18v-1465l264 -34l39 -195h-479l22 887zM340 1274h72l-54 -787zM358 -113l13 66l159 -100z" />
<glyph unicode="\" horiz-adv-x="774" d="M-2 1530l305 -905l14 -158zM39 1534l205 -10l213 -860l315 -883l-223 20l-209 852z" />
<glyph unicode="]" horiz-adv-x="669" d="M45 1524l457 -15v-1892l-406 16l-12 168l252 17v1429l53 53l-328 39zM82 -92l174 -45l-174 -21v66zM225 1151l62 57l-17 -934z" />
<glyph unicode="^" d="M47 428l272 504l152 559l205 37l467 -1043l-320 -86l-243 754l-289 -711zM190 967l172 288l-100 -323zM838 1327l252 -403l-5 -82z" />
<glyph unicode="_" horiz-adv-x="1169" d="M-29 -72l1246 -8l-11 -186h-1202l8 147zM-12 -375l14 68l1186 33zM1241 -131l8 43l41 -2z" />
<glyph unicode="`" horiz-adv-x="563" d="M82 1481l104 131l295 -303l-63 -64zM109 1417l223 -139l-219 96z" />
<glyph unicode="a" horiz-adv-x="1019" d="M55 193l217 -207l-215 157zM55 231l33 392l303 147l271 -14l-41 141l-199 51l-154 -127l-114 203l198 125l367 -23l205 -254l-33 -426l43 -440h-279l41 119l-139 -117l-240 -22zM115 1071l204 86l-180 -106zM297 309l125 -78l117 -4l129 52l-6 202l-54 74l-176 29 l-135 -74v-201zM309 825l123 95l84 -21zM330 340v154l51 28zM537 795l59 75l33 -90zM578 268l53 164l16 -133zM616 -59l25 39l266 -3z" />
<glyph unicode="b" horiz-adv-x="1110" d="M25 -18l79 620l-30 -612zM92 1397l254 121l-14 -494l200 152l281 -48l215 -280l-27 -537l-210 -280l-306 -17l-129 150v-176l-252 -15l29 631zM360 1090l31 415l53 -16zM362 330l113 -133l150 6l166 155l-35 433l-80 108l-144 16l-170 -170v-415zM379 76l61 -74l-51 -4z M393 629v108l152 135zM492 225l122 35l2 -35h-124zM842 33l180 235l-82 -207zM854 1135l80 -17l84 -176z" />
<glyph unicode="c" horiz-adv-x="987" d="M74 324l22 534l293 281h342l148 -170l-205 -178l-25 92l-190 12l-129 -115l12 -418l117 -124l153 -25l103 98l198 -153l-307 -183l-315 62zM82 893l192 242l78 8zM371 776l112 92l99 -10zM381 365l164 -121l-62 14zM645 -27l305 168l27 -22zM676 752l223 194l-215 -254z " />
<glyph unicode="d" horiz-adv-x="1122" d="M102 150l2 61l164 -203zM123 258v539l235 282l320 15l84 -158l-41 412l254 135l-12 -821l34 -668h-235v106l-144 -129l-311 52zM346 346l115 -164l166 25l123 139v338l-97 131l-200 -4l-107 -172v-293zM369 356l12 281l39 -342zM393 1114l254 51l17 -41zM578 793l59 2 l68 -121zM649 -43l86 78l-20 -74zM700 1378l5 47l221 62zM987 649l100 -641l-61 -4z" />
<glyph unicode="e" horiz-adv-x="1099" d="M74 813l114 240l76 32zM84 770l213 330l342 65l256 -149l117 -316l-37 -301h-668l127 -153l178 -33l125 94l164 -211l-192 -108h-342l-261 225zM348 678l469 -10l-80 39l-69 174l-189 14zM360 377l84 -45l-14 -53zM399 700l95 172l53 -8zM608 250l70 108l31 -32zM645 729 l8 111l52 -121zM686 1171l86 5l107 -111zM1014 401l30 252l13 -256z" />
<glyph unicode="f" horiz-adv-x="577" d="M-14 1141l149 -11l39 273l221 137l168 -29l10 -256l-51 19l-102 14l-62 -90l-88 -45l310 -12l-7 -230l-182 -10v-895l-264 -8v801l100 57l-223 10zM43 752l45 30l-4 -446zM178 1442l105 108l79 -8zM393 1212l47 56l56 -19zM424 819l2 58l143 2z" />
<glyph unicode="g" horiz-adv-x="1099" d="M82 825l111 258l75 11zM86 313v443l215 352l311 47l119 -174v141l240 -14l-25 -481l29 -406l-23 -264l-164 -342l-292 -92l-13 246l185 127l80 192l-115 -117h-164l-264 107zM326 735l12 -383l135 -139l150 -20l86 90v436l-76 119l-160 10zM377 -262l61 12l11 -211z M383 362l188 -135l-88 13zM471 -70l143 15l-41 -43zM500 823l114 -6l66 -106zM834 -381l137 297l-8 -92zM993 702l4 29v-16zM997 731v369l66 -6z" />
<glyph unicode="h" horiz-adv-x="1062" d="M76 1341l284 158l-10 -495l131 120l156 35l274 -153l33 -453l29 -563h-275v710l-84 162l-161 19l-113 -156l43 -737l-272 -17l30 697zM369 711l92 120l-68 -409zM391 1149v356l51 11zM602 -16l57 680l5 -672zM676 1169l74 11l145 -131z" />
<glyph unicode="i" horiz-adv-x="464" d="M4 1120h55l31 -334zM41 1253l10 86l49 -112zM72 -18l55 788l-35 354l291 -6l-45 -690l18 -467zM76 1376l51 109l143 39l109 -97l18 -137l-88 -92l-168 23zM348 1198l49 55v-61zM377 412l57 -449l-47 6z" />
<glyph unicode="j" horiz-adv-x="483" d="M-78 -256l148 51l63 217v1106l244 -4v-1227l-96 -245l-256 -119zM-27 -203l115 205l-43 -168zM72 1456l10 84l65 -10zM98 1268v137l131 125l148 -86v-215l-172 -47zM317 1534l101 -4l-29 -51zM326 -350l71 178l-10 -158zM408 1110l63 -2l-47 -657z" />
<glyph unicode="k" horiz-adv-x="989" d="M18 -23l70 730l-20 -725zM94 -18l29 755v604l268 172l-14 -684l-53 -139l309 400h338l-344 -394l331 -696l-241 -12l-238 405l45 127l-159 -131l26 -395zM125 1384l4 70l195 55zM399 862l21 459l29 -377zM432 297l27 55l157 -280zM674 698l307 346l10 -49z" />
<glyph unicode="l" horiz-adv-x="462" d="M41 -41l57 664l-37 -654zM55 1397l234 123l-228 -168zM88 1323l256 195v-650l57 -886l-288 -21l22 694zM375 1528l65 16l-51 -670z" />
<glyph unicode="m" horiz-adv-x="1683" d="M84 1104h217l43 -88l98 102l199 12l186 -63l-22 -106l133 153l135 37l303 -27l156 -200l29 -461l14 -453h-279l33 686l-94 189l-178 16l-99 -131v-803l-245 10v771l-90 131l-181 16l-102 -135l35 -783h-264v502zM322 1104l40 14l-18 -63zM367 750l90 118l108 -16z M698 1149l136 -19v-32zM985 10v752l82 108zM1409 1120l64 -22l59 -142zM1591 10v432l58 -411z" />
<glyph unicode="n" horiz-adv-x="1062" d="M31 1137l53 -2l12 -469zM113 1130h258l-19 -133l195 131l219 9l199 -224v-411l12 -498l-262 -27v730l-76 174l-133 20l-123 -153v-771h-262l22 515zM381 1044l33 95l37 -19zM412 -20v565l53 -557zM565 864l62 -4l59 -160zM807 1126l63 4l84 -157z" />
<glyph unicode="o" horiz-adv-x="1122" d="M70 387l116 -301l-112 215zM80 455l61 430l246 219l223 33l164 -58l195 -276l51 -375l-176 -410l-330 -69l-297 121zM336 393l90 -166l203 -14l116 125l15 340l-80 172l-154 18l-151 -137zM371 451l35 270l122 110zM633 256l92 340l-4 -240zM823 1069l64 -20l80 -189z M887 41l151 342l-71 -293z" />
<glyph unicode="p" horiz-adv-x="1122" d="M43 1165h61l17 -751zM121 -510l41 881l-27 776l242 -23l-10 -86l77 70l154 39l270 -119l166 -389l-82 -473l-272 -199l-252 37l-68 117l39 -447zM143 -524l265 159l16 -57zM371 403l121 -157l143 -37l125 117l22 342l-104 200l-195 11l-94 -113zM408 461l12 295l65 75z M666 279l84 378l-19 -311zM668 1155l73 2l107 -84zM719 -41l227 156l-164 -162z" />
<glyph unicode="q" horiz-adv-x="1110" d="M70 336l22 518l215 260l236 23l164 -103l8 96l256 11l-25 -686l41 -785l-287 -157v458l31 92l-201 -102l-280 57zM90 920l96 184l78 6zM309 352l84 -129l201 -6l121 154l-15 389l-88 108l-180 23l-123 -176v-363zM348 369v288l49 -370zM483 862l99 -8l86 -92zM614 -150 l50 62l10 -354zM981 522l31 619l57 -11z" />
<glyph unicode="r" horiz-adv-x="706" d="M6 -10l92 520l-53 -520h-39zM76 -14l55 559l-27 610l41 -22h215l-16 -119l109 123l153 -25l74 -47l-92 -287l-72 109l-115 -21l-34 -389v-516zM401 524l25 316l68 10zM608 754l92 282l-53 -323z" />
<glyph unicode="s" horiz-adv-x="915" d="M39 88l63 268l45 -28zM45 874l102 218l62 8zM63 840l183 274l358 33l195 -96l-47 -289l-129 88l-195 51l-98 -67l41 -97l354 -98l137 -188v-263l-217 -194h-344l-231 76l102 243l227 -98l205 41l8 133q-76 26 -152 57.5t-183.5 79.5t-145.5 64zM362 825l70 45l160 -32z M412 244l170 63l-9 -45zM770 629l61 -15l37 -122z" />
<glyph unicode="t" horiz-adv-x="632" d="M4 1130h123v191l254 135l10 -307l182 14l-6 -260l-172 -12l-20 -588l119 -74l120 52l-34 -279l-154 -41l-188 41l-109 234l-16 579l112 66l-211 -19zM23 752l61 39v-482zM123 1425l205 39l-199 -108zM410 330l20 542l35 -579zM416 1174l8 49l135 -31z" />
<glyph unicode="u" horiz-adv-x="1071" d="M104 1116l275 6l-29 -776l139 -135l158 20l88 134v770l228 -13v-1153l-205 11l-13 133l-124 -133l-265 -15l-186 139l-47 345zM180 51l119 -82l-115 29zM381 358l37 648v-680zM586 246l112 112l-67 -104zM647 -18l70 65l-12 -61zM995 428v690l66 -10z" />
<glyph unicode="v" horiz-adv-x="933" d="M-61 1182l309 -35l-291 -12zM-25 1100l310 24l188 -833l21 280l172 553h254l-185 -618l-121 -535l-284 17l-133 559zM172 524l133 -542l-47 -9zM498 647l86 479l51 -6z" />
<glyph unicode="w" horiz-adv-x="1511" d="M-41 1169l311 -20l-288 -21zM-2 1100l301 24l156 -766l149 742l289 24l162 -794l153 800l258 -51l-174 -600l-94 -491h-326l-127 651l-57 -207l-102 -455l-285 -16l-127 582zM162 494l98 -535l-47 -8zM745 483l103 -491l-51 -8zM924 1124l61 11l57 -582zM1233 -10l80 452 l-10 -448z" />
<glyph unicode="x" horiz-adv-x="933" d="M-27 1192l328 -51l-311 10zM0 1118l301 -10l191 -367l24 121l150 275l254 -23l-304 -584l318 -536l-297 -6l-193 309l-34 -98l-121 -222l-266 27l303 567zM51 133l203 479l33 -47zM317 -20l97 184v-92zM514 913l70 232l53 -6zM653 526l355 -512l-52 -4z" />
<glyph unicode="y" horiz-adv-x="933" d="M-14 1108l297 39l172 -758l225 748l278 -7l-319 -972l-150 -635l-315 31l133 430l76 -111l-225 762zM182 -285l62 363l37 -64zM322 1143l71 4l51 -531zM530 -477l136 604l-64 -604h-72z" />
<glyph unicode="z" horiz-adv-x="931" d="M61 -37l11 246l379 567l120 117l-477 -10l8 266l736 12l12 -268l-385 -588l-96 -72l469 15l45 -246h-766zM63 -53l64 22h655zM96 797l6 43l373 20zM516 326l324 485l-265 -469zM864 1161l41 4l-31 -252z" />
<glyph unicode="{" horiz-adv-x="935" d="M23 440l18 195l195 43l122 98l25 524l244 191l241 -29l-6 -176l-172 -8l-86 -131l-39 -422l-153 -150l-74 -4l-2 -47l63 -10l185 -176l32 -401l84 -136l172 -14l58 -164l-332 -22l-231 159l10 478l-178 202h-176zM51 668l254 120l-72 -71zM276 287l56 -70v-391zM373 1341 l137 162l68 -18zM461 580l112 96l-18 -70zM698 -127l156 -47l-129 10z" />
<glyph unicode="|" horiz-adv-x="569" d="M186 -377v1880l164 33v-1903zM412 -354v1861l49 -1853z" />
<glyph unicode="}" horiz-adv-x="935" d="M-2 -379l12 203l201 20l96 156l27 326l133 182l106 29l15 75l-139 6l-144 140v418l-90 139h-217l12 186l314 29l204 -199l-10 -444l187 -223l149 20l-6 -215l-164 -18l-143 -185v-399l-199 -238zM111 1274l88 4l55 -92zM317 362l50 125l59 9zM582 250l131 166l80 2z" />
<glyph unicode="~" d="M35 698l133 172l293 9l225 -152l156 4l125 139l163 -135l-217 -192l-231 18l-154 150h-215l-125 -125zM240 928l170 33l32 -33h-202zM492 674l104 -107h-76zM770 788l154 111l-107 -135z" />
<glyph unicode="&#xa1;" horiz-adv-x="473" d="M96 -133v289l29 -359zM117 324l65 544l127 -26l72 -434v-623l-205 -31zM119 1014l49 -51l-37 6zM125 1174l92 118l156 -65l22 -144l-104 -131l-80 17l-74 73zM260 1300l80 -8l33 -35zM340 819l53 -123l10 -229z" />
<glyph unicode="&#xa2;" horiz-adv-x="1077" d="M88 784l78 326l299 223l-19 131l277 -4l-27 -133l287 -174l-137 -143l-168 90l-27 -373l11 -369l165 97l174 -150l-200 -145l-123 -19l18 -161l-258 53l17 119l-283 233zM201 303l202 -151l-77 -2zM303 647l135 -287l35 365l-37 377l-133 -158v-297zM340 809v115l37 45z M758 1341l16 76l74 -117z" />
<glyph unicode="&#xa3;" horiz-adv-x="1163" d="M86 233l100 31l64 103l41 249h-103v242l109 43l-10 236l125 200l149 148l256 10l209 -176l-215 -184l-96 139l-183 -137l-26 -279l270 27l105 -211l-371 -10l20 -349l-182 -82l649 31l76 -276l-967 41zM203 584l55 -6l-39 -220zM285 1206l32 121l86 55zM545 625l73 -273 l-45 -16zM547 1049l8 73l145 107zM817 881h53l25 -170zM1038 258l66 -2v-211z" />
<glyph unicode="&#xa5;" horiz-adv-x="1251" d="M74 1452l268 -14l297 -617l-23 164l240 508l266 -18l-370 -764l352 10l-19 -207l-325 -14l-31 -209l391 26l-16 -155l-385 -47l6 -154l-219 19l10 210l-360 -8l-11 150l340 14l21 182h-361l9 164h399l-115 58zM113 1241l223 -424l-88 31zM756 90l336 43l-320 -84z M801 745l360 728l56 -35z" />
<glyph unicode="&#xa6;" horiz-adv-x="569" d="M121 -379l72 629l157 29l45 -674zM154 831v685l282 22l-47 -659z" />
<glyph unicode="&#xa7;" horiz-adv-x="1140" d="M43 -49l193 188l192 -159l199 -29l211 92l18 152l-422 208l-260 218l29 231l196 88l-239 188l49 242l219 105l395 16l226 -164l-162 -143l-164 133l-238 -10l-135 -138l176 -133l400 -145l121 -178l-37 -252l-154 -86l180 -148v-272l-268 -154h-469zM367 662l84 -84 l297 -117l114 117l-35 155l-235 113l-225 -88v-96zM393 1171l84 70l-4 -139zM530 778l58 31l186 -96zM666 10l139 176l-2 -114zM901 373l76 35l10 -82z" />
<glyph unicode="&#xa8;" horiz-adv-x="782" d="M82 1503l121 70l67 -14l82 -103l-47 -102l-69 -74l-136 74zM272 1280l52 53l20 -43zM438 1528l2 55l78 -4zM449 1491l98 74l84 22l63 -80l6 -147l-88 -64l-145 35z" />
<glyph unicode="&#xa9;" horiz-adv-x="1626" d="M43 586l57 471l322 360l184 74l471 -74l385 -225l101 -524l-246 -457l-410 -231l-301 53l-377 196zM78 408l110 -179l-98 35zM221 860l62 -397l323 -309l471 47l244 223l96 393l-157 361l-353 153l-418 -33l-139 -96zM469 631l45 373l254 184l233 -35l117 -129l-143 -84 l-47 98l-101 17l-200 -140l-15 -270l66 -158l215 -49l111 109l139 -62l-68 -94l-227 -96l-246 117zM526 1063l6 53l154 37zM549 256l211 -41l-144 -27zM643 700l12 201l84 27zM823 1491h346l-20 -35zM1001 586l37 59l119 -106z" />
<glyph unicode="&#xaa;" horiz-adv-x="622" d="M29 997l41 156l172 84l168 -31l-7 64l-163 14l-119 -43l-45 152l129 53l223 -19l115 -141l-19 -235l27 -248l-150 -27l-6 107l-55 -80l-139 -12l-27 2l-123 86zM188 1063l19 -80l55 -37l109 33l8 84l-25 35l-86 16z" />
<glyph unicode="&#xab;" horiz-adv-x="1220" d="M96 819l371 223l63 -124l-262 -148l262 -164l-36 -155l-385 219zM340 782l205 109l20 -29zM707 819l370 223l64 -124l-262 -148l262 -164l-37 -155l-385 219zM950 782l205 109l21 -29z" />
<glyph unicode="&#xac;" d="M51 924l441 -45l-422 -15zM72 623v215l1046 -25v-813l-219 -20v591l86 76zM682 543v57l190 16z" />
<glyph unicode="&#xad;" horiz-adv-x="473" d="M35 633l4 29l383 -15zM43 682v209l207 -29l172 41l20 -235zM57 907h242l-41 -20z" />
<glyph unicode="&#xae;" horiz-adv-x="1626" d="M43 586l57 471l322 360l184 74l471 -74l385 -225l101 -524l-246 -457l-410 -231l-301 53l-377 196zM78 408l110 -179l-98 35zM221 860l62 -397l323 -309l471 47l244 223l96 393l-157 361l-353 153l-418 -33l-139 -96zM539 342l57 375l-49 436l227 14l217 17l154 -146 l-21 -270l-186 -109l192 -323l-174 -29l-139 303l49 62l-178 -41l14 -314zM549 256l211 -41l-144 -27zM621 1032l71 -14l-24 -244l241 14l115 78v133l-121 64zM823 1491h346l-20 -35z" />
<glyph unicode="&#xaf;" horiz-adv-x="815" d="M82 1374l16 150l45 -160zM133 1509l592 29l8 -188h-532z" />
<glyph unicode="&#xb0;" horiz-adv-x="841" d="M43 1096l39 245l250 172l127 -16l133 -35l139 -188l-14 -279l-195 -188l-307 51zM86 1397l35 110l143 13zM264 1210l31 -163l209 -46l110 144l-51 139l-180 35zM291 1196l110 94l109 -30zM598 793l102 106l-2 -96z" />
<glyph unicode="&#xb1;" d="M53 639l10 211l437 -14l-19 424l215 -48l-53 -389l449 23l-21 -236l-436 21l76 -375l-279 -39l29 457zM66 74l538 -25l486 35l10 -250l-813 33h-207zM201 631h217v-56zM422 106l428 15l-236 -47zM702 852l15 96l90 -84z" />
<glyph unicode="&#xb2;" horiz-adv-x="655" d="M63 1352l138 131l174 14l145 -78l58 -207l-68 -153l-193 -101l-88 -71v-56h318l47 5l-8 -152l-520 -12v149l75 203l226 141l43 80l-19 41l-133 31l-119 -103z" />
<glyph unicode="&#xb3;" horiz-adv-x="626" d="M59 1298l78 132l92 55l168 -6l97 -131l20 -113l-45 -66l-45 -43l78 -43l45 -127l-31 -188l-160 -98l-186 28l-107 70l117 143l78 -65l109 6l20 68l-41 92l-133 18l-33 113l121 14l41 62l-2 94l-66 24l-51 -32l-8 -39z" />
<glyph unicode="&#xb4;" horiz-adv-x="593" d="M82 1323l14 20l41 -61zM106 1346l150 114l150 160l106 -123l-330 -248z" />
<glyph unicode="&#xb6;" horiz-adv-x="1458" d="M63 846l15 407l244 203l1013 21l-57 -848l43 -932l-240 -31l4 1516l127 86l-319 -15v-1454l-258 -133l37 930l-383 68zM283 1014l127 -191l221 -16l-29 446h-207zM340 1059l92 166l43 -41zM381 1491l104 72l500 -39zM393 588l236 -35l-15 -76zM745 -334l134 51l-13 -84z M913 1221l82 4l-71 -166z" />
<glyph unicode="&#xb7;" horiz-adv-x="440" d="M82 594v186l125 92l125 -36l28 -187l-147 -106zM84 793l92 84l19 -3zM225 539l135 100l-116 -100h-19z" />
<glyph unicode="&#xb8;" horiz-adv-x="487" d="M82 -365l4 52l55 -52h-59zM92 -158l146 78l102 -47l39 -106l-66 -142l-172 -102l-16 53l121 96l-80 -22l-74 61v131zM371 -143l35 -23v-45z" />
<glyph unicode="&#xb9;" horiz-adv-x="360" d="M35 1401l112 78l177 -21l-48 -385v-397l-165 -6l26 579l-80 4z" />
<glyph unicode="&#xba;" horiz-adv-x="677" d="M61 971l37 325l138 119l129 19l155 -48l80 -180l6 -188l-67 -203l-230 -45l-184 78zM227 1026l41 -82l99 -31l75 56l4 84l-16 121l-37 81l-69 11l-74 -80z" />
<glyph unicode="&#xbb;" horiz-adv-x="1220" d="M102 645l279 103l-260 92l-6 186l395 -168l20 -201l-415 -202zM115 813l180 -68l-178 25zM535 848l36 -12l-24 -125zM713 645l278 103l-260 92l-6 186l395 -168l21 -201l-416 -202zM725 813l180 -68l-178 25zM1145 848l37 -12l-25 -125z" />
<glyph unicode="&#xbc;" horiz-adv-x="1564" d="M86 -12l586 690l522 749l145 25q-351 -492 -1083 -1493zM182 1401l113 78l176 -21l-47 -385v-397l-166 -6l27 579l-80 4zM659 750l351 665l96 8zM926 336l321 457l162 -9l-2 -452l94 -4l-2 -162l-76 -10l35 -170l-203 -17l19 183l-328 10zM1081 309l191 -10l-6 311z" />
<glyph unicode="&#xbd;" horiz-adv-x="1617" d="M86 -12l586 690l522 749l145 25q-351 -492 -1083 -1493zM182 1401l113 78l176 -21l-47 -385v-397l-166 -6l27 579l-80 4zM659 750l351 665l96 8zM1024 655l137 131l174 15l146 -78l57 -207l-68 -154l-192 -100l-88 -72v-55h317l47 4l-8 -151l-520 -13v150l76 203l225 141 l43 80l-18 41l-133 31l-119 -103z" />
<glyph unicode="&#xbe;" horiz-adv-x="1669" d="M86 1298l78 132l92 55l168 -6l96 -131l21 -113l-45 -66l-45 -43l77 -43l45 -127l-30 -188l-160 -98l-186 28l-107 70l117 143l78 -65l108 6l21 68l-41 92l-133 18l-33 113l121 14l41 62l-2 94l-66 24l-51 -32l-8 -39zM190 -12l586 690l522 749l146 25 q-352 -492 -1084 -1493zM764 750l350 665l96 8zM1030 336l322 457l161 -9l-2 -452l95 -4l-2 -162l-76 -10l35 -170l-203 -17l18 183l-327 10zM1186 309l190 -10l-6 311z" />
<glyph unicode="&#xbf;" horiz-adv-x="929" d="M47 -27l33 371l258 315v195l295 20l-55 -317l-291 -319l71 -201l201 -19l172 160l103 -205l-150 -163l-428 -27zM80 408l215 335l8 -69zM264 1159v6l60 70l-39 -145zM313 1069l49 162l209 33l62 -177l-96 -149l-109 -12zM492 55l200 123l-139 -131zM571 950l72 78l-4 -63 zM782 160l105 -127l-27 -29z" />
<glyph unicode="&#xc0;" horiz-adv-x="1196" d="M-16 -18l237 630l205 840l98 -25l236 39l399 -1466l-256 -12l-37 268l-495 -43l-19 74l-94 -328zM207 659l143 809l45 -22zM295 1819l104 131l295 -303l-63 -64zM322 1755l223 -139l-219 96zM387 186l414 31l-406 -94zM416 469l358 37l-51 51l-80 520l-92 -33zM623 1012 l61 -430l-35 30zM899 -39l272 12l11 -34z" />
<glyph unicode="&#xc1;" horiz-adv-x="1196" d="M-16 -18l237 630l205 840l98 -25l236 39l399 -1466l-256 -12l-37 268l-495 -43l-19 74l-94 -328zM207 659l143 809l45 -22zM387 186l414 31l-406 -94zM416 469l358 37l-51 51l-80 520l-92 -33zM485 1661l15 20l41 -61zM510 1683l149 115l150 160l106 -123l-329 -248z M623 1012l61 -430l-35 30zM899 -39l272 12l11 -34z" />
<glyph unicode="&#xc2;" horiz-adv-x="1196" d="M-16 -18l237 630l205 840l98 -25l236 39l399 -1466l-256 -12l-37 268l-495 -43l-19 74l-94 -328zM207 659l143 809l45 -22zM285 1642l252 234l215 33l159 -250l-184 -62l-129 183l-149 -144zM387 186l414 31l-406 -94zM416 469l358 37l-51 51l-80 520l-92 -33zM492 1630 l102 109l31 -51zM623 1012l61 -430l-35 30zM899 -39l272 12l11 -34z" />
<glyph unicode="&#xc3;" horiz-adv-x="1196" d="M-16 -18l237 630l205 840l98 -25l236 39l399 -1466l-256 -12l-37 268l-495 -43l-19 74l-94 -328zM152 1751l157 195l154 8l354 -195l137 187l88 -105l-196 -194l-201 41l-244 161l-135 -178zM207 659l143 809l45 -22zM344 1626l92 74l35 -37zM387 186l414 31l-406 -94z M416 469l358 37l-51 51l-80 520l-92 -33zM623 1012l61 -430l-35 30zM741 1872l115 33l-94 -74zM899 -39l272 12l11 -34z" />
<glyph unicode="&#xc4;" horiz-adv-x="1196" d="M-16 -18l237 630l205 840l98 -25l236 39l399 -1466l-256 -12l-37 268l-495 -43l-19 74l-94 -328zM207 659l143 809l45 -22zM289 1841l121 70l67 -15l82 -102l-47 -102l-70 -74l-135 74zM387 186l414 31l-406 -94zM416 469l358 37l-51 51l-80 520l-92 -33zM479 1618l51 53 l21 -43zM623 1012l61 -430l-35 30zM645 1866l2 55l78 -4zM655 1829l99 74l84 22l63 -80l6 -147l-88 -64l-145 35zM899 -39l272 12l11 -34z" />
<glyph unicode="&#xc5;" horiz-adv-x="1196" d="M-16 -18l237 630l205 840l98 -25l236 39l399 -1466l-256 -12l-37 268l-495 -43l-19 74l-94 -328zM207 659l143 809l45 -22zM387 186l414 31l-406 -94zM399 1862l9 63l84 -2zM410 1620l4 195l121 108l172 2l90 -129l-21 -197l-194 -53zM416 469l358 37l-51 51l-80 520 l-92 -33zM502 1786l4 -115l137 -22l68 100l-107 88zM532 1776l72 16l-67 -92zM623 1012l61 -430l-35 30zM899 -39l272 12l11 -34z" />
<glyph unicode="&#xc6;" horiz-adv-x="1673" d="M-18 0l260 725l149 721l1174 20l-6 -249l-666 38l70 -417l383 28l18 -198l-344 -47l-45 96l39 -494h532l41 -223h-770l6 221l99 72l-594 -72l-74 -221h-272zM162 616l45 746l98 55zM352 471l522 25l-120 36l-56 721l-96 15zM713 170l47 61l-10 -231zM932 1217l594 -56 l-584 -26zM1100 565l270 49l-217 -110z" />
<glyph unicode="&#xc7;" horiz-adv-x="1282" d="M68 483l141 -307l-59 51zM88 530l35 498l217 336l389 98l291 -61l160 -219l-217 -166l-211 182l-246 -61l-137 -297v-330l159 -225l263 -29l165 154l228 -187l-250 -200l-406 -35l-286 174zM109 1067l110 262l78 17zM412 852l125 258l84 14zM522 -365l4 52l56 -52h-60z M532 -158l146 78l102 -47l39 -106l-65 -142l-172 -102l-17 53l121 96l-80 -22l-74 61v131zM567 319l269 13l-58 -45zM811 -143l35 -23v-45zM979 987l223 172l17 -33zM997 31l207 166l-133 -156z" />
<glyph unicode="&#xc8;" horiz-adv-x="1021" d="M63 623l50 63l-31 -684zM113 1444l796 -6l33 -269h-524l-41 52l-39 -359l358 10l56 -260l-381 23l18 -350l-74 -52l246 -10l369 13l12 -242l-418 16l-409 -43l39 723zM209 1819l104 131l295 -303l-63 -64zM236 1755l223 -139l-219 96zM418 305v283l55 -242zM440 1141h410 l-377 -37zM731 872l49 -2l-4 -174z" />
<glyph unicode="&#xc9;" horiz-adv-x="1021" d="M63 623l50 63l-31 -684zM113 1444l796 -6l33 -269h-524l-41 52l-39 -359l358 10l56 -260l-381 23l18 -350l-74 -52l246 -10l369 13l12 -242l-418 16l-409 -43l39 723zM397 1661l15 20l41 -61zM418 305v283l55 -242zM422 1683l149 115l150 160l106 -123l-329 -248z M440 1141h410l-377 -37zM731 872l49 -2l-4 -174z" />
<glyph unicode="&#xca;" horiz-adv-x="1021" d="M63 623l50 63l-31 -684zM113 1444l796 -6l33 -269h-524l-41 52l-39 -359l358 10l56 -260l-381 23l18 -350l-74 -52l246 -10l369 13l12 -242l-418 16l-409 -43l39 723zM197 1642l252 234l215 33l159 -250l-184 -62l-129 183l-150 -144zM403 1630l103 109l31 -51zM418 305 v283l55 -242zM440 1141h410l-377 -37zM731 872l49 -2l-4 -174z" />
<glyph unicode="&#xcb;" horiz-adv-x="1021" d="M63 623l50 63l-31 -684zM113 1444l796 -6l33 -269h-524l-41 52l-39 -359l358 10l56 -260l-381 23l18 -350l-74 -52l246 -10l369 13l12 -242l-418 16l-409 -43l39 723zM201 1841l121 70l67 -15l82 -102l-47 -102l-70 -74l-135 74zM391 1618l51 53l21 -43zM418 305v283 l55 -242zM440 1141h410l-377 -37zM557 1866l2 55l78 -4zM567 1829l99 74l84 22l63 -80l6 -147l-88 -64l-145 35zM731 872l49 -2l-4 -174z" />
<glyph unicode="&#xcc;" horiz-adv-x="481" d="M-61 1819l104 131l295 -303l-64 -64zM-35 1755l223 -139l-219 96zM6 35l72 620l-39 -643zM61 1427l306 -16l-29 -629l74 -737l-349 -57l46 692zM176 -10l240 30l12 -30h-252zM381 819l16 586l56 -2z" />
<glyph unicode="&#xcd;" horiz-adv-x="481" d="M6 35l72 620l-39 -643zM61 1427l306 -16l-29 -629l74 -737l-349 -57l46 692zM127 1661l14 20l41 -61zM152 1683l149 115l150 160l106 -123l-330 -248zM176 -10l240 30l12 -30h-252zM381 819l16 586l56 -2z" />
<glyph unicode="&#xce;" horiz-adv-x="481" d="M-72 1642l252 234l215 33l160 -250l-184 -62l-129 183l-150 -144zM6 35l72 620l-39 -643zM61 1427l306 -16l-29 -629l74 -737l-349 -57l46 692zM135 1630l103 109l30 -51zM176 -10l240 30l12 -30h-252zM381 819l16 586l56 -2z" />
<glyph unicode="&#xcf;" horiz-adv-x="481" d="M-68 1841l121 70l68 -15l82 -102l-47 -102l-70 -74l-135 74zM6 35l72 620l-39 -643zM61 1427l306 -16l-29 -629l74 -737l-349 -57l46 692zM123 1618l51 53l21 -43zM176 -10l240 30l12 -30h-252zM289 1866l2 55l78 -4zM299 1829l98 74l84 22l64 -80l6 -147l-88 -64 l-146 35zM381 819l16 586l56 -2z" />
<glyph unicode="&#xd0;" horiz-adv-x="1310" d="M0 874l96 3l-26 516l30 12v-528l35 2v526l207 20l465 -14l321 -252l144 -422l-187 -520l-303 -213l-297 -16l-370 -45l18 686l-113 -23zM371 649l18 -450l377 47l209 315v393l-250 234h-342l-8 -303l299 8l14 -268zM395 596l180 -29l-165 -28zM700 274l213 269v-6 l-157 -263h-56zM852 1417l90 -14l168 -186zM1126 238l168 467l-114 -447z" />
<glyph unicode="&#xd1;" horiz-adv-x="1267" d="M37 -41l65 545l-20 -533zM84 1438l342 24l492 -1052l-66 1001l260 27l55 -1428l-319 -16l-457 1096l-55 -553l72 -584l-297 8l22 582zM188 1751l158 195l154 8l354 -195l137 187l88 -105l-196 -194l-201 41l-244 161l-135 -178zM365 543l51 403l-21 -543zM381 1626l92 74 l35 -37zM758 1386l51 19l70 -721zM778 1872l115 33l-94 -74zM858 -37l320 17l-312 -50zM1165 725v719l35 -6z" />
<glyph unicode="&#xd2;" horiz-adv-x="1384" d="M90 473l25 510l186 342l309 137l256 -24l228 -125l190 -301v-451l-172 -448l-367 -164l-454 182zM109 1047l69 237l86 37zM285 59l14 43l324 -145zM354 645l80 -330l297 -88l266 154l64 350l-115 373l-317 94l-252 -201zM385 664l27 311h37zM389 1819l105 131l294 -303 l-63 -64zM416 1755l223 -139l-219 96zM449 410l221 -134l-203 60zM975 440l16 373l35 -74zM1141 1311l61 -11l86 -251zM1153 131l143 381l-79 -350z" />
<glyph unicode="&#xd3;" horiz-adv-x="1384" d="M90 473l25 510l186 342l309 137l256 -24l228 -125l190 -301v-451l-172 -448l-367 -164l-454 182zM109 1047l69 237l86 37zM285 59l14 43l324 -145zM354 645l80 -330l297 -88l266 154l64 350l-115 373l-317 94l-252 -201zM385 664l27 311h37zM449 410l221 -134l-203 60z M580 1661l14 20l41 -61zM604 1683l150 115l149 160l107 -123l-330 -248zM975 440l16 373l35 -74zM1141 1311l61 -11l86 -251zM1153 131l143 381l-79 -350z" />
<glyph unicode="&#xd4;" horiz-adv-x="1384" d="M90 473l25 510l186 342l309 137l256 -24l228 -125l190 -301v-451l-172 -448l-367 -164l-454 182zM109 1047l69 237l86 37zM285 59l14 43l324 -145zM354 645l80 -330l297 -88l266 154l64 350l-115 373l-317 94l-252 -201zM379 1642l252 234l215 33l160 -250l-185 -62 l-129 183l-149 -144zM385 664l27 311h37zM449 410l221 -134l-203 60zM586 1630l102 109l31 -51zM975 440l16 373l35 -74zM1141 1311l61 -11l86 -251zM1153 131l143 381l-79 -350z" />
<glyph unicode="&#xd5;" horiz-adv-x="1384" d="M90 473l25 510l186 342l309 137l256 -24l228 -125l190 -301v-451l-172 -448l-367 -164l-454 182zM109 1047l69 237l86 37zM246 1751l157 195l154 8l354 -195l138 187l88 -105l-197 -194l-201 41l-243 161l-136 -178zM285 59l14 43l324 -145zM354 645l80 -330l297 -88 l266 154l64 350l-115 373l-317 94l-252 -201zM385 664l27 311h37zM438 1626l92 74l35 -37zM449 410l221 -134l-203 60zM836 1872l114 33l-94 -74zM975 440l16 373l35 -74zM1141 1311l61 -11l86 -251zM1153 131l143 381l-79 -350z" />
<glyph unicode="&#xd6;" horiz-adv-x="1384" d="M90 473l25 510l186 342l309 137l256 -24l228 -125l190 -301v-451l-172 -448l-367 -164l-454 182zM109 1047l69 237l86 37zM285 59l14 43l324 -145zM354 645l80 -330l297 -88l266 154l64 350l-115 373l-317 94l-252 -201zM383 1841l121 70l67 -15l82 -102l-47 -102 l-69 -74l-136 74zM385 664l27 311h37zM449 410l221 -134l-203 60zM573 1618l52 53l20 -43zM739 1866l2 55l78 -4zM750 1829l98 74l84 22l63 -80l6 -147l-88 -64l-145 35zM975 440l16 373l35 -74zM1141 1311l61 -11l86 -251zM1153 131l143 381l-79 -350z" />
<glyph unicode="&#xd7;" d="M135 1024l154 129l313 -289l272 328l164 -168l-288 -322l303 -264l-158 -145l-281 270l-75 8l-193 -249l-100 4l-103 120l314 289zM463 422l69 106l35 -65z" />
<glyph unicode="&#xd8;" horiz-adv-x="1382" d="M74 606l39 336l127 309l192 160l338 64l205 -82l72 172l202 -6l-168 -265l222 -374v-451l-207 -383l-303 -86l-273 -12l-80 61l-102 -174h-238l183 291l-140 215zM113 330l102 -162l-39 -57zM244 1300l86 123l61 -12zM319 737l64 -258l-12 -153l524 901l-78 -35l-172 37 l-217 -144zM356 727l113 328l-86 -422zM530 236l269 14l229 190l49 377l-73 195zM700 434l297 502l31 -92zM1153 1247l25 41l94 -252z" />
<glyph unicode="&#xd9;" horiz-adv-x="1230" d="M72 1466l295 -14l-29 -1040l154 -189l200 -28l133 163v1090h301v-1026l-129 -285l-297 -170l-348 45l-223 273l-12 299zM133 229l184 -221l-170 164zM313 1819l105 131l295 -303l-64 -64zM340 1755l223 -139l-219 96zM367 428l36 989l13 -1036zM633 229l172 140 l-123 -146zM825 1485v53l295 -45zM1024 143l119 238l-58 -205z" />
<glyph unicode="&#xda;" horiz-adv-x="1230" d="M72 1466l295 -14l-29 -1040l154 -189l200 -28l133 163v1090h301v-1026l-129 -285l-297 -170l-348 45l-223 273l-12 299zM133 229l184 -221l-170 164zM367 428l36 989l13 -1036zM502 1661l14 20l41 -61zM526 1683l150 115l149 160l107 -123l-330 -248zM633 229l172 140 l-123 -146zM825 1485v53l295 -45zM1024 143l119 238l-58 -205z" />
<glyph unicode="&#xdb;" horiz-adv-x="1230" d="M72 1466l295 -14l-29 -1040l154 -189l200 -28l133 163v1090h301v-1026l-129 -285l-297 -170l-348 45l-223 273l-12 299zM133 229l184 -221l-170 164zM301 1642l252 234l215 33l160 -250l-185 -62l-129 183l-149 -144zM367 428l36 989l13 -1036zM508 1630l102 109l31 -51z M633 229l172 140l-123 -146zM825 1485v53l295 -45zM1024 143l119 238l-58 -205z" />
<glyph unicode="&#xdc;" horiz-adv-x="1230" d="M72 1466l295 -14l-29 -1040l154 -189l200 -28l133 163v1090h301v-1026l-129 -285l-297 -170l-348 45l-223 273l-12 299zM133 229l184 -221l-170 164zM305 1841l121 70l68 -15l81 -102l-47 -102l-69 -74l-135 74zM367 428l36 989l13 -1036zM496 1618l51 53l20 -43z M633 229l172 140l-123 -146zM662 1866l2 55l77 -4zM672 1829l98 74l84 22l64 -80l6 -147l-88 -64l-146 35zM825 1485v53l295 -45zM1024 143l119 238l-58 -205z" />
<glyph unicode="&#xdd;" horiz-adv-x="1126" d="M12 1397l275 30l254 -555l-29 -141l358 713l256 -10l-415 -852l24 -588h-315v512l65 -37zM330 1432l69 2l146 -461zM346 541l43 -25l10 -280zM451 1661l14 20l41 -61zM475 1683l150 115l149 160l107 -123l-330 -248zM748 567l407 840l-397 -932z" />
<glyph unicode="&#xde;" horiz-adv-x="1079" d="M12 1411l68 21v-639zM125 -16v1466l264 8l4 -174l-57 -72l313 23l271 -150l108 -276l-67 -348l-224 -146l-319 -75l-37 75l12 -309zM287 948l94 -39l-21 -430l355 23l106 143l-45 201l-141 125l-195 -4zM408 549l10 340l57 -45zM430 1305v147l66 -111zM788 305l175 109 l-21 -76z" />
<glyph unicode="&#xdf;" horiz-adv-x="1169" d="M-33 4l139 563l-73 -557zM96 -10l39 581v715l191 205l268 55l217 -106l143 -150l62 -256l-209 -246l170 -18l96 -246l-39 -307l-143 -188l-242 -41h-215l39 252l297 28l88 201l-102 176l-250 23l-21 219l195 45l76 119l-78 211h-209l-88 -105v-1157zM473 993l166 -4 l-156 -61zM582 612l157 2l60 -82zM899 825l98 136l-14 -134z" />
<glyph unicode="&#xe0;" horiz-adv-x="1019" d="M55 193l217 -207l-215 157zM55 231l33 392l303 147l271 -14l-41 141l-199 51l-154 -127l-114 203l198 125l367 -23l205 -254l-33 -426l43 -440h-279l41 119l-139 -117l-240 -22zM115 1071l204 86l-180 -106zM207 1481l104 131l295 -303l-63 -64zM233 1417l224 -139 l-219 96zM297 309l125 -78l117 -4l129 52l-6 202l-54 74l-176 29l-135 -74v-201zM309 825l123 95l84 -21zM330 340v154l51 28zM537 795l59 75l33 -90zM578 268l53 164l16 -133zM616 -59l25 39l266 -3z" />
<glyph unicode="&#xe1;" horiz-adv-x="1019" d="M55 193l217 -207l-215 157zM55 231l33 392l303 147l271 -14l-41 141l-199 51l-154 -127l-114 203l198 125l367 -23l205 -254l-33 -426l43 -440h-279l41 119l-139 -117l-240 -22zM115 1071l204 86l-180 -106zM297 309l125 -78l117 -4l129 52l-6 202l-54 74l-176 29 l-135 -74v-201zM309 825l123 95l84 -21zM330 340v154l51 28zM397 1323l15 20l41 -61zM422 1346l149 114l150 160l106 -123l-329 -248zM537 795l59 75l33 -90zM578 268l53 164l16 -133zM616 -59l25 39l266 -3z" />
<glyph unicode="&#xe2;" horiz-adv-x="1019" d="M55 193l217 -207l-215 157zM55 231l33 392l303 147l271 -14l-41 141l-199 51l-154 -127l-114 203l198 125l367 -23l205 -254l-33 -426l43 -440h-279l41 119l-139 -117l-240 -22zM115 1071l204 86l-180 -106zM197 1305l252 233l215 33l159 -250l-184 -61l-129 182 l-150 -144zM297 309l125 -78l117 -4l129 52l-6 202l-54 74l-176 29l-135 -74v-201zM309 825l123 95l84 -21zM330 340v154l51 28zM403 1292l103 109l31 -51zM537 795l59 75l33 -90zM578 268l53 164l16 -133zM616 -59l25 39l266 -3z" />
<glyph unicode="&#xe3;" horiz-adv-x="1019" d="M55 193l217 -207l-215 157zM55 231l33 392l303 147l271 -14l-41 141l-199 51l-154 -127l-114 203l198 125l367 -23l205 -254l-33 -426l43 -440h-279l41 119l-139 -117l-240 -22zM66 1413l157 195l154 8l354 -195l137 187l88 -105l-196 -194l-201 41l-244 161l-135 -178z M115 1071l204 86l-180 -106zM258 1288l92 74l35 -37zM297 309l125 -78l117 -4l129 52l-6 202l-54 74l-176 29l-135 -74v-201zM309 825l123 95l84 -21zM330 340v154l51 28zM537 795l59 75l33 -90zM578 268l53 164l16 -133zM616 -59l25 39l266 -3zM655 1534l115 33l-94 -74z " />
<glyph unicode="&#xe4;" horiz-adv-x="1019" d="M55 193l217 -207l-215 157zM55 231l33 392l303 147l271 -14l-41 141l-199 51l-154 -127l-114 203l198 125l367 -23l205 -254l-33 -426l43 -440h-279l41 119l-139 -117l-240 -22zM115 1071l204 86l-180 -106zM201 1503l121 70l67 -14l82 -103l-47 -102l-70 -74l-135 74z M297 309l125 -78l117 -4l129 52l-6 202l-54 74l-176 29l-135 -74v-201zM309 825l123 95l84 -21zM330 340v154l51 28zM391 1280l51 53l21 -43zM537 795l59 75l33 -90zM557 1528l2 55l78 -4zM567 1491l99 74l84 22l63 -80l6 -147l-88 -64l-145 35zM578 268l53 164l16 -133z M616 -59l25 39l266 -3z" />
<glyph unicode="&#xe5;" horiz-adv-x="1019" d="M55 193l217 -207l-215 157zM55 231l33 392l303 147l271 -14l-41 141l-199 51l-154 -127l-114 203l198 125l367 -23l205 -254l-33 -426l43 -440h-279l41 119l-139 -117l-240 -22zM115 1071l204 86l-180 -106zM297 309l125 -78l117 -4l129 52l-6 202l-54 74l-176 29 l-135 -74v-201zM309 825l123 95l84 -21zM311 1524l8 63l84 -2zM322 1282l4 195l120 108l172 2l91 -129l-21 -196l-194 -54zM330 340v154l51 28zM414 1448l4 -115l137 -22l68 100l-107 88zM444 1438l72 16l-67 -92zM537 795l59 75l33 -90zM578 268l53 164l16 -133zM616 -59 l25 39l266 -3z" />
<glyph unicode="&#xe6;" horiz-adv-x="1677" d="M51 289l96 -228l-67 56zM66 348l143 338l250 84l268 -63l-49 155l-227 33l-132 -74l-110 183l117 100l170 43l327 -103l-10 -102l139 176l219 58l230 -91l182 -256v-407h-631l95 -182l182 -31l141 106l111 -143l-64 -98l-229 -86l-283 45l-41 114l-61 -108l-279 -78 l-334 90zM158 1079l123 31l-97 -68zM334 469l4 -201l154 -80l215 72l-15 199l-196 94zM365 356v99l114 59zM463 862l194 -20l9 -70zM967 700l358 -26l-20 155l-129 117l-209 -119v-127zM995 397l357 2l-314 -59zM1004 809l172 96l47 -55zM1235 -20l166 65l-4 -43z" />
<glyph unicode="&#xe7;" horiz-adv-x="987" d="M74 324l22 534l293 281h342l148 -170l-205 -178l-25 92l-190 12l-129 -115l12 -418l117 -124l153 -25l103 98l198 -153l-307 -183l-315 62zM82 893l192 242l78 8zM371 776l112 92l99 -10zM381 365l164 -121l-62 14zM387 -365l4 52l55 -52h-59zM397 -158l146 78l102 -47 l39 -106l-66 -142l-172 -102l-16 53l121 96l-80 -22l-74 61v131zM645 -27l305 168l27 -22zM676 -143l35 -23v-45zM676 752l223 194l-215 -254z" />
<glyph unicode="&#xe8;" horiz-adv-x="1099" d="M74 813l114 240l76 32zM84 770l213 330l342 65l256 -149l117 -316l-37 -301h-668l127 -153l178 -33l125 94l164 -211l-192 -108h-342l-261 225zM248 1481l104 131l295 -303l-63 -64zM274 1417l224 -139l-219 96zM348 678l469 -10l-80 39l-69 174l-189 14zM360 377l84 -45 l-14 -53zM399 700l95 172l53 -8zM608 250l70 108l31 -32zM645 729l8 111l52 -121zM686 1171l86 5l107 -111zM1014 401l30 252l13 -256z" />
<glyph unicode="&#xe9;" horiz-adv-x="1099" d="M74 813l114 240l76 32zM84 770l213 330l342 65l256 -149l117 -316l-37 -301h-668l127 -153l178 -33l125 94l164 -211l-192 -108h-342l-261 225zM348 678l469 -10l-80 39l-69 174l-189 14zM360 377l84 -45l-14 -53zM399 700l95 172l53 -8zM436 1323l15 20l41 -61z M461 1346l149 114l150 160l106 -123l-329 -248zM608 250l70 108l31 -32zM645 729l8 111l52 -121zM686 1171l86 5l107 -111zM1014 401l30 252l13 -256z" />
<glyph unicode="&#xea;" horiz-adv-x="1099" d="M74 813l114 240l76 32zM84 770l213 330l342 65l256 -149l117 -316l-37 -301h-668l127 -153l178 -33l125 94l164 -211l-192 -108h-342l-261 225zM236 1305l251 233l215 33l160 -250l-184 -61l-129 182l-150 -144zM348 678l469 -10l-80 39l-69 174l-189 14zM360 377l84 -45 l-14 -53zM399 700l95 172l53 -8zM442 1292l103 109l30 -51zM608 250l70 108l31 -32zM645 729l8 111l52 -121zM686 1171l86 5l107 -111zM1014 401l30 252l13 -256z" />
<glyph unicode="&#xeb;" horiz-adv-x="1099" d="M74 813l114 240l76 32zM84 770l213 330l342 65l256 -149l117 -316l-37 -301h-668l127 -153l178 -33l125 94l164 -211l-192 -108h-342l-261 225zM240 1503l120 70l68 -14l82 -103l-47 -102l-70 -74l-135 74zM348 678l469 -10l-80 39l-69 174l-189 14zM360 377l84 -45 l-14 -53zM399 700l95 172l53 -8zM430 1280l51 53l21 -43zM596 1528l2 55l78 -4zM606 1491l99 74l83 22l64 -80l6 -147l-88 -64l-145 35zM608 250l70 108l31 -32zM645 729l8 111l52 -121zM686 1171l86 5l107 -111zM1014 401l30 252l13 -256z" />
<glyph unicode="&#xec;" horiz-adv-x="464" d="M-70 1481l105 131l295 -303l-64 -64zM-43 1417l223 -139l-219 96zM4 1120h55l31 -334zM72 -18l55 788l-35 354l291 -6l-45 -690l18 -467zM377 412l57 -449l-47 6z" />
<glyph unicode="&#xed;" horiz-adv-x="464" d="M4 1120h55l31 -334zM72 -18l55 788l-35 354l291 -6l-45 -690l18 -467zM119 1323l14 20l41 -61zM143 1346l150 114l149 160l107 -123l-330 -248zM377 412l57 -449l-47 6z" />
<glyph unicode="&#xee;" horiz-adv-x="464" d="M-80 1305l252 233l215 33l160 -250l-185 -61l-129 182l-149 -144zM4 1120h55l31 -334zM72 -18l55 788l-35 354l291 -6l-45 -690l18 -467zM127 1292l102 109l31 -51zM377 412l57 -449l-47 6z" />
<glyph unicode="&#xef;" horiz-adv-x="550" d="M-33 1503l121 70l68 -14l82 -103l-48 -102l-69 -74l-135 74zM47 1120h55l31 -334zM115 -18l55 788l-35 354l291 -6l-45 -690l18 -467zM158 1280l51 53l20 -43zM324 1528l2 55l77 -4zM334 1491l98 74l84 22l64 -80l6 -147l-88 -64l-146 35zM420 412l57 -449l-47 6z" />
<glyph unicode="&#xf0;" horiz-adv-x="1079" d="M74 645l172 246l223 61l-160 121l58 129l-80 -4l39 250l194 -10l-37 -148l156 250l190 -180l-98 -131l160 -185l106 -440l-88 -442l-274 -209l-320 35l-213 235zM315 418l103 -205l260 14l92 275l-164 194l-178 -10zM377 444l78 193l108 18zM530 936l199 -143l-80 274z M778 1227l74 106l-25 -166z" />
<glyph unicode="&#xf1;" horiz-adv-x="1062" d="M31 1137l53 -2l12 -469zM86 1413l158 195l153 8l355 -195l137 187l88 -105l-197 -194l-200 41l-244 161l-135 -178zM113 1130h258l-19 -133l195 131l219 9l199 -224v-411l12 -498l-262 -27v730l-76 174l-133 20l-123 -153v-771h-262l22 515zM279 1288l92 74l35 -37z M381 1044l33 95l37 -19zM412 -20v565l53 -557zM565 864l62 -4l59 -160zM676 1534l115 33l-95 -74zM807 1126l63 4l84 -157z" />
<glyph unicode="&#xf2;" horiz-adv-x="1122" d="M70 387l116 -301l-112 215zM80 455l61 430l246 219l223 33l164 -58l195 -276l51 -375l-176 -410l-330 -69l-297 121zM258 1481l104 131l295 -303l-63 -64zM285 1417l223 -139l-219 96zM336 393l90 -166l203 -14l116 125l15 340l-80 172l-154 18l-151 -137zM371 451 l35 270l122 110zM633 256l92 340l-4 -240zM823 1069l64 -20l80 -189zM887 41l151 342l-71 -293z" />
<glyph unicode="&#xf3;" horiz-adv-x="1122" d="M70 387l116 -301l-112 215zM80 455l61 430l246 219l223 33l164 -58l195 -276l51 -375l-176 -410l-330 -69l-297 121zM336 393l90 -166l203 -14l116 125l15 340l-80 172l-154 18l-151 -137zM371 451l35 270l122 110zM449 1323l14 20l41 -61zM473 1346l150 114l149 160 l107 -123l-330 -248zM633 256l92 340l-4 -240zM823 1069l64 -20l80 -189zM887 41l151 342l-71 -293z" />
<glyph unicode="&#xf4;" horiz-adv-x="1122" d="M70 387l116 -301l-112 215zM80 455l61 430l246 219l223 33l164 -58l195 -276l51 -375l-176 -410l-330 -69l-297 121zM248 1305l252 233l215 33l159 -250l-184 -61l-129 182l-149 -144zM336 393l90 -166l203 -14l116 125l15 340l-80 172l-154 18l-151 -137zM371 451 l35 270l122 110zM455 1292l102 109l31 -51zM633 256l92 340l-4 -240zM823 1069l64 -20l80 -189zM887 41l151 342l-71 -293z" />
<glyph unicode="&#xf5;" horiz-adv-x="1122" d="M70 387l116 -301l-112 215zM80 455l61 430l246 219l223 33l164 -58l195 -276l51 -375l-176 -410l-330 -69l-297 121zM115 1413l157 195l154 8l354 -195l138 187l88 -105l-197 -194l-201 41l-243 161l-136 -178zM307 1288l92 74l35 -37zM336 393l90 -166l203 -14l116 125 l15 340l-80 172l-154 18l-151 -137zM371 451l35 270l122 110zM633 256l92 340l-4 -240zM705 1534l114 33l-94 -74zM823 1069l64 -20l80 -189zM887 41l151 342l-71 -293z" />
<glyph unicode="&#xf6;" horiz-adv-x="1122" d="M70 387l116 -301l-112 215zM80 455l61 430l246 219l223 33l164 -58l195 -276l51 -375l-176 -410l-330 -69l-297 121zM252 1503l121 70l67 -14l82 -103l-47 -102l-69 -74l-136 74zM336 393l90 -166l203 -14l116 125l15 340l-80 172l-154 18l-151 -137zM371 451l35 270 l122 110zM442 1280l52 53l20 -43zM608 1528l2 55l78 -4zM618 1491l99 74l84 22l63 -80l6 -147l-88 -64l-145 35zM633 256l92 340l-4 -240zM823 1069l64 -20l80 -189zM887 41l151 342l-71 -293z" />
<glyph unicode="&#xf7;" d="M61 831l539 -24l485 35l11 -250l-813 33h-207zM418 864l428 15l-236 -48zM442 80v186l125 92l125 -36l29 -187l-148 -106zM442 1149v186l125 92l125 -36l29 -187l-148 -106zM444 279l93 83l18 -2zM444 1348l93 84l18 -2zM586 25l135 100l-117 -100h-18zM586 1094l135 100 l-117 -100h-18z" />
<glyph unicode="&#xf8;" horiz-adv-x="1122" d="M66 -111l151 295l-106 166l-17 369l160 315l291 121l215 -47l57 139l164 -22l-111 -230l164 -188l-10 -281l-96 -370l-314 -127l-247 73l-93 -223zM115 299l78 -113l-52 -63zM305 328l338 563l-92 41l-184 -121l-21 -291zM379 573l18 224l29 -144zM494 258l262 68l55 262 l-84 117zM575 336l158 301l35 -51zM920 995l63 123l-20 -172z" />
<glyph unicode="&#xf9;" horiz-adv-x="1071" d="M104 1116l275 6l-29 -776l139 -135l158 20l88 134v770l228 -13v-1153l-205 11l-13 133l-124 -133l-265 -15l-186 139l-47 345zM180 51l119 -82l-115 29zM233 1481l105 131l295 -303l-64 -64zM260 1417l223 -139l-219 96zM381 358l37 648v-680zM586 246l112 112l-67 -104z M647 -18l70 65l-12 -61zM995 428v690l66 -10z" />
<glyph unicode="&#xfa;" horiz-adv-x="1071" d="M104 1116l275 6l-29 -776l139 -135l158 20l88 134v770l228 -13v-1153l-205 11l-13 133l-124 -133l-265 -15l-186 139l-47 345zM180 51l119 -82l-115 29zM381 358l37 648v-680zM422 1323l14 20l41 -61zM446 1346l150 114l149 160l107 -123l-330 -248zM586 246l112 112 l-67 -104zM647 -18l70 65l-12 -61zM995 428v690l66 -10z" />
<glyph unicode="&#xfb;" horiz-adv-x="1071" d="M104 1116l275 6l-29 -776l139 -135l158 20l88 134v770l228 -13v-1153l-205 11l-13 133l-124 -133l-265 -15l-186 139l-47 345zM180 51l119 -82l-115 29zM221 1305l252 233l215 33l160 -250l-184 -61l-129 182l-150 -144zM381 358l37 648v-680zM428 1292l102 109l31 -51z M586 246l112 112l-67 -104zM647 -18l70 65l-12 -61zM995 428v690l66 -10z" />
<glyph unicode="&#xfc;" horiz-adv-x="1071" d="M104 1116l275 6l-29 -776l139 -135l158 20l88 134v770l228 -13v-1153l-205 11l-13 133l-124 -133l-265 -15l-186 139l-47 345zM180 51l119 -82l-115 29zM225 1503l121 70l68 -14l82 -103l-47 -102l-70 -74l-135 74zM381 358l37 648v-680zM416 1280l51 53l20 -43z M582 1528l2 55l78 -4zM586 246l112 112l-67 -104zM592 1491l98 74l84 22l64 -80l6 -147l-88 -64l-146 35zM647 -18l70 65l-12 -61zM995 428v690l66 -10z" />
<glyph unicode="&#xfd;" horiz-adv-x="933" d="M-14 1108l297 39l172 -758l225 748l278 -7l-319 -972l-150 -635l-315 31l133 430l76 -111l-225 762zM182 -285l62 363l37 -64zM322 1143l71 4l51 -531zM354 1323l15 20l41 -61zM379 1346l149 114l150 160l106 -123l-329 -248zM530 -477l136 604l-64 -604h-72z" />
<glyph unicode="&#xfe;" horiz-adv-x="1122" d="M86 1419l274 86l-24 -587l242 174l198 -41l219 -260l-8 -410l-164 -330l-348 -53l-110 96v-454l-250 -60l22 969zM360 655l7 -204l86 -172l186 -56l121 123l26 258l-71 164l-150 31zM387 1030l39 457l70 -27zM395 -338l13 293l71 -283zM395 461l13 160l116 106zM631 276 l98 242v-147z" />
<glyph unicode="&#xff;" horiz-adv-x="933" d="M-14 1108l297 39l172 -758l225 748l278 -7l-319 -972l-150 -635l-315 31l133 430l76 -111l-225 762zM158 1503l121 70l67 -14l82 -103l-47 -102l-70 -74l-135 74zM182 -285l62 363l37 -64zM322 1143l71 4l51 -531zM348 1280l51 53l21 -43zM514 1528l2 55l78 -4zM524 1491 l99 74l84 22l63 -80l6 -147l-88 -64l-145 35zM530 -477l136 604l-64 -604h-72z" />
<glyph unicode="&#x152;" horiz-adv-x="1927" d="M63 635l52 420l262 356l450 37l199 -123l-4 127l752 21l57 -240h-610l16 -301l-72 -82l365 12l65 -258l-387 8l19 -379h569l-35 -251l-753 22l14 111l-223 -156l-451 147l-186 213zM111 1104l135 270l65 17zM362 61l318 -129l-281 41zM389 434l125 -174l354 19l125 194 v498l-176 198l-256 19l-172 -242v-512zM428 946l139 191h90zM1243 551l86 -266l-72 -25zM1257 1182l72 -191l-57 -39zM1569 860l73 10l-16 -170z" />
<glyph unicode="&#x153;" horiz-adv-x="1789" d="M84 399l31 381l200 277l402 73l194 -147l25 45l186 123l434 -51l148 -359l-41 -358l-55 -2l-594 63l18 -180l193 -76l202 113l209 -158l-116 -114l-334 -68l-246 123l-209 -107l-348 -16l-217 152zM111 827l112 201l56 19zM172 23v61l166 -127zM352 326l76 -109l330 16 l47 156l-31 422l-61 43l-264 14l-97 -159v-383zM379 707l90 131l41 -9zM745 285l13 358l24 -252zM784 -23l158 76l31 -30zM899 1069l143 72l-124 -99zM1038 420l35 -17l-31 -116zM1051 657l432 17l-15 129l-198 139l-199 -149zM1231 872l31 33l184 -106zM1468 307l220 -102 l-35 -41zM1612 1075l51 -31l59 -251z" />
<glyph unicode="&#x178;" horiz-adv-x="1126" d="M12 1397l275 30l254 -555l-29 -141l358 713l256 -10l-415 -852l24 -588h-315v512l65 -37zM254 1841l121 70l67 -15l82 -102l-47 -102l-69 -74l-136 74zM330 1432l69 2l146 -461zM346 541l43 -25l10 -280zM444 1618l52 53l20 -43zM610 1866l2 55l78 -4zM621 1829l98 74 l84 22l63 -80l6 -147l-88 -64l-145 35zM748 567l407 840l-397 -932z" />
<glyph unicode="&#x2c6;" horiz-adv-x="790" d="M82 1305l252 233l215 33l160 -250l-185 -61l-129 182l-149 -144zM289 1292l102 109l31 -51z" />
<glyph unicode="&#x2dc;" horiz-adv-x="1054" d="M82 1413l158 195l153 8l355 -195l137 187l88 -105l-197 -194l-201 41l-243 161l-135 -178zM274 1288l93 74l34 -37zM672 1534l114 33l-94 -74z" />
<glyph unicode="&#x2000;" horiz-adv-x="979" />
<glyph unicode="&#x2001;" horiz-adv-x="1958" />
<glyph unicode="&#x2002;" horiz-adv-x="979" />
<glyph unicode="&#x2003;" horiz-adv-x="1958" />
<glyph unicode="&#x2004;" horiz-adv-x="652" />
<glyph unicode="&#x2005;" horiz-adv-x="489" />
<glyph unicode="&#x2006;" horiz-adv-x="326" />
<glyph unicode="&#x2007;" horiz-adv-x="326" />
<glyph unicode="&#x2008;" horiz-adv-x="244" />
<glyph unicode="&#x2009;" horiz-adv-x="391" />
<glyph unicode="&#x200a;" horiz-adv-x="108" />
<glyph unicode="&#x2010;" horiz-adv-x="473" d="M35 633l4 29l383 -15zM43 682v209l207 -29l172 41l20 -235zM57 907h242l-41 -20z" />
<glyph unicode="&#x2011;" horiz-adv-x="473" d="M35 633l4 29l383 -15zM43 682v209l207 -29l172 41l20 -235zM57 907h242l-41 -20z" />
<glyph unicode="&#x2012;" horiz-adv-x="473" d="M35 633l4 29l383 -15zM43 682v209l207 -29l172 41l20 -235zM57 907h242l-41 -20z" />
<glyph unicode="&#x2013;" horiz-adv-x="997" d="M29 920l37 -9l-17 -174zM66 657l24 252l227 -47l607 51l30 -256l-235 17l-348 -17h-305zM383 625l340 24l209 -24h-549z" />
<glyph unicode="&#x2014;" horiz-adv-x="1558" d="M51 891l795 39l557 41l110 -305l-593 41l-822 -80zM98 588l781 82l-779 -123zM1434 973l51 -2l20 -203z" />
<glyph unicode="&#x2018;" horiz-adv-x="335" d="M18 1108l7 57l84 -73zM18 1198l43 320l181 98l55 -74l-119 -51l-35 -80l121 -8l62 -107l-45 -139l-150 -51zM182 1430l21 53l84 28z" />
<glyph unicode="&#x2019;" horiz-adv-x="339" d="M14 1137l4 71l58 -71h-62zM25 1247l6 185l143 106l107 -65l41 -152l-68 -197l-178 -143l-17 74l125 135l-84 -33zM311 1448l37 -31v-63z" />
<glyph unicode="&#x201a;" horiz-adv-x="339" d="M14 -53l4 71l58 -71h-62zM25 55v185l149 108l107 -67l41 -150l-68 -199l-178 -143l-17 76l125 135l-84 -33zM311 258l37 -31v-63z" />
<glyph unicode="&#x201c;" horiz-adv-x="671" d="M18 1108l7 57l84 -73zM18 1198l43 320l181 98l55 -74l-119 -51l-35 -80l121 -8l62 -107l-45 -139l-150 -51zM182 1430l21 53l84 28zM354 1108l6 57l84 -73zM354 1198l43 320l181 98l55 -74l-119 -51l-35 -80l121 -8l62 -107l-46 -139l-149 -51zM518 1430l21 53l84 28z " />
<glyph unicode="&#x201d;" horiz-adv-x="679" d="M14 1137l4 71l58 -71h-62zM25 1247l6 185l143 106l107 -65l41 -152l-68 -197l-178 -143l-17 74l125 135l-84 -33zM311 1448l37 -31v-63zM354 1137l4 71l58 -71h-62zM365 1247l6 185l143 106l107 -65l41 -152l-68 -197l-178 -143l-17 74l125 135l-84 -33zM651 1448l37 -31 v-63z" />
<glyph unicode="&#x201e;" horiz-adv-x="679" d="M14 -53l4 71l58 -71h-62zM25 55v185l149 108l107 -67l41 -150l-68 -199l-178 -143l-17 76l125 135l-84 -33zM311 258l37 -31v-63zM354 -53l4 71l58 -71h-62zM365 55v185l149 108l107 -67l41 -150l-68 -199l-178 -143l-17 76l125 135l-84 -33zM651 258l37 -31v-63z" />
<glyph unicode="&#x2022;" horiz-adv-x="872" d="M150 752l67 166l160 92l104 34l99 -65l129 -158v-196l-117 -142l-172 -32l-152 75l-80 88zM188 586l56 -60l-47 11zM219 940l51 61l82 13zM618 471l99 131l-4 -74z" />
<glyph unicode="&#x2026;" horiz-adv-x="1839" d="M104 18v187l125 92l125 -37l29 -186l-147 -107zM106 217l93 84l18 -2zM248 -37l135 100l-117 -100h-18zM780 18v187l125 92l125 -37l29 -186l-148 -107zM782 217l92 84l19 -2zM924 -37l135 100l-117 -100h-18zM1456 18v187l125 92l125 -37l29 -186l-148 -107zM1458 217 l92 84l19 -2zM1599 -37l136 100l-117 -100h-19z" />
<glyph unicode="&#x202f;" horiz-adv-x="391" />
<glyph unicode="&#x2039;" horiz-adv-x="610" d="M96 819l371 223l63 -124l-262 -148l262 -164l-36 -155l-385 219zM340 782l205 109l20 -29z" />
<glyph unicode="&#x203a;" horiz-adv-x="610" d="M102 645l279 103l-260 92l-6 186l395 -168l20 -201l-415 -202zM115 813l180 -68l-178 25zM535 848l36 -12l-24 -125z" />
<glyph unicode="&#x205f;" horiz-adv-x="489" />
<glyph unicode="&#x20ac;" horiz-adv-x="1185" d="M14 690l103 -16l24 96l-121 -4l13 246l123 -15l149 326l354 150l445 -89l-121 -268l-164 109l-215 -47l-203 -174h375l37 -216l-455 -47l4 -67l424 -17l17 -18l10 -199l-383 -12l49 -86l154 -82h215l133 84l113 -225l-183 -109l-315 -33l-311 185l-111 250l-135 -9z M61 346l82 14l64 -161zM61 1047l156 194l-82 -199zM483 1032l160 109l-16 -88zM500 393l262 -2l-197 -53zM1006 1079l88 224l-39 -242z" />
<glyph unicode="&#x2122;" horiz-adv-x="1458" d="M37 1368l801 82l71 -344l125 326l209 51l33 -817l-182 -33l16 307l-201 -326l-106 377l-10 -344l-191 -22v602h-209l-14 -561l-189 -29l29 465v135l-170 -37zM45 1165l145 43l-6 -61zM424 668v528l45 -494zM817 621v180l49 -178zM877 1452l75 8l-41 -205zM1286 1473 l72 -738l-47 -37z" />
<glyph unicode="&#xfb01;" horiz-adv-x="1042" d="M-14 1141l149 -11l39 273l221 137l168 -29l10 -256l-51 19l-102 14l-62 -90l-88 -45l310 -12l-7 -230l-182 -10v-895l-264 -8v801l100 57l-223 10zM43 752l45 30l-4 -446zM178 1442l105 108l79 -8zM393 1212l47 56l56 -19zM424 819l2 58l143 2zM582 1120h55l31 -334z M618 1253l11 86l49 -112zM649 -18l56 788l-35 354l291 -6l-46 -690l19 -467zM653 1376l52 109l143 39l108 -97l19 -137l-88 -92l-168 23zM926 1198l49 55v-61zM954 412l58 -449l-47 6z" />
<glyph unicode="&#xfb02;" horiz-adv-x="1040" d="M-14 1141l149 -11l39 273l221 137l168 -29l10 -256l-51 19l-102 14l-62 -90l-88 -45l310 -12l-7 -230l-182 -10v-895l-264 -8v801l100 57l-223 10zM43 752l45 30l-4 -446zM178 1442l105 108l79 -8zM393 1212l47 56l56 -19zM424 819l2 58l143 2zM618 -41l58 664l-37 -654z M633 1397l233 123l-227 -168zM666 1323l256 195v-650l57 -886l-289 -21l23 694zM952 1528l66 16l-51 -670z" />
</font>
</defs>
</svg>
