<?xml version="1.0" encoding="utf-8"?>
<!-- Generator: Adobe Illustrator 19.1.0, SVG Export Plug-In . SVG Version: 6.00 Build 0)  -->
<svg version="1.1" id="Layer_1" xmlns="http://www.w3.org/2000/svg" xmlns:xlink="http://www.w3.org/1999/xlink" x="0px" y="0px"
	 viewBox="0 0 291 277.5" style="enable-background:new 0 0 291 277.5;" xml:space="preserve">
<g>
	<g>
		<path d="M147.4,15.4c-68.8,0-124.5,55.7-124.5,124.5s55.7,124.5,124.5,124.5s124.5-55.7,124.5-124.5S216.2,15.4,147.4,15.4z
			 M49.2,185.2L49.2,185.2L49.2,185.2L49.2,185.2z M200.2,145.4L200.2,145.4l-0.7-0.2l-30.3,59.6l0,0l-16-15.7l0,0l-103.4-3.9
			l-0.3,0l0.1-0.1l0,0l0.7-0.5l0.2-0.2l0,0l45.4-36.1l0,0l6,0.3L52.9,77l73.8,66.9l4-1.9l5.8-28.3l0,0l0,0l0.6-0.4l0,0l84.2-61.4
			l0,0l-15.6,83.2l5.9,0l1.2,0.2l23.2,25.9L200.2,145.4z"/>
	</g>
</g>
</svg>
